Coordinates
version=1
nRows=25
nColumns=33
inDegrees=yes

Units are S.I. units (second, meters, Newtons, ...)
Angles are in degrees.

endheader
time	ground_thorax_rot_x	ground_thorax_rot_y	ground_thorax_rot_z	ground_thorax_tx	ground_thorax_ty	ground_thorax_tz	clav_prot_r	clav_elev_r	scapula_abduction_r	scapula_elevation_r	scapula_upward_rot_r	scapula_winging_r	shoulder_elv_r	plane_of_elev_r	axial_rot_r	elbow_flexion_r	pro_sup_r	wrist_flex_r	wrist_dev_r	clav_prot_l	clav_elev_l	scapula_abduction_l	scapula_elevation_l	scapula_upward_rot_l	scapula_winging_l	shoulder_elv_l	plane_of_elev_l	axial_rot_l	elbow_flexion_l	pro_sup_l	wrist_flex_l	wrist_dev_l	
8.1300	40.132863	1.503105	5.479992	-162.740670	888.017444	-8.736722	-1.454374	41.644485	45.000000	45.000000	28.565828	2404.296816	-2093.047613	18.649402	-180.000000	6.801115	311.953128	22.645912	8.066727	13.193570	-45.000000	-41.944725	45.000000	-37.782310	-982.816410	-2252.743574	142.194480	144.880659	-346.218440	51.287571	4.629340	-21.958295	
8.1400	40.083345	1.270278	4.964516	-160.378571	890.058412	-8.758818	-1.797953	41.415713	45.000000	45.000000	30.141859	2404.180685	-2092.775564	18.758364	-180.000000	6.791093	312.168578	22.750251	8.114721	13.207411	-45.000000	-42.516183	45.000000	-36.390670	-982.693286	-2252.531389	142.131351	145.146233	-346.193329	51.207098	4.613640	-21.988790	
8.1500	40.040782	1.052595	4.474868	-157.940560	891.968232	-8.775920	-2.082008	41.197697	45.000000	45.000000	31.633236	2404.088574	-2092.531112	18.874298	-180.000000	6.774071	312.168522	22.843120	8.184747	13.207814	-45.000000	-43.066311	45.000000	-35.021263	-982.579679	-2252.328087	142.070061	145.388805	-346.180747	50.986776	4.616881	-22.021919	
8.1600	39.997830	0.835090	3.992237	-155.429528	893.732514	-8.787087	-2.363967	40.970890	45.000000	45.000000	33.137977	2404.002688	-2092.286882	18.978364	-180.000000	6.754579	311.978040	22.910295	8.289260	13.181898	-45.000000	-43.583526	45.000000	-33.635339	-982.493495	-2252.129407	142.020349	145.650468	-346.185615	50.610830	4.646105	-22.061916	
8.1700	39.953961	0.591470	3.492005	-152.847911	895.339112	-8.791734	-2.668225	40.720804	45.000000	45.000000	34.773633	2403.921699	-2092.011726	19.040939	-180.000000	6.738954	311.636885	22.943039	8.436767	13.154987	-45.000000	-44.052505	45.000000	-32.199419	-982.435723	-2251.939080	141.971212	145.943687	-346.215927	50.066879	4.706686	-22.112153	
8.1800	39.908028	0.338028	3.000154	-150.197899	896.777979	-8.789686	-3.043029	40.458954	45.000000	45.000000	36.449020	2403.842209	-2091.735334	19.086290	-180.000000	6.720618	311.191679	22.964677	8.597426	13.077995	-45.000000	-44.435227	45.000000	-30.742697	-982.440995	-2251.746199	141.944668	146.251455	-346.273086	49.329374	4.812303	-22.182033	
8.1900	39.866258	0.096912	2.551707	-147.481533	898.040962	-8.780909	-3.393108	40.205649	45.000000	45.000000	38.042746	2403.782675	-2091.493603	19.132211	-180.000000	6.702631	310.639639	22.978673	8.762774	12.946456	-45.000000	-44.714754	45.000000	-29.368035	-982.505826	-2251.552115	141.916976	146.564654	-346.356503	48.374359	4.955852	-22.258039	
8.2000	39.825114	-0.122353	2.158514	-144.700606	899.121155	-8.765079	-3.757982	39.968845	45.000000	45.000000	39.512893	2403.739240	-2091.296695	19.185364	-180.000000	6.677287	309.975914	22.997734	8.919480	12.733289	-45.000000	-44.882840	45.000000	-28.082038	-982.646621	-2251.352383	141.904539	146.881623	-346.466533	47.171061	5.148726	-22.346815	
8.2100	39.785959	-0.323554	1.818846	-141.856412	900.012290	-8.741129	-4.047683	39.753189	45.000000	45.000000	40.878351	2403.722616	-2091.136983	19.229625	-180.000000	6.653149	309.173281	23.005490	9.084979	12.496325	-45.000000	-44.965772	45.000000	-26.911996	-982.830242	-2251.161305	141.875576	147.217413	-346.607375	45.700956	5.380832	-22.431557	
8.2200	39.746145	-0.501020	1.528329	-138.949691	900.707839	-8.707026	-4.308636	39.564934	45.000000	45.000000	42.127977	2403.716714	-2091.017347	19.272717	-180.000000	6.628624	308.235220	23.014492	9.247865	12.232255	-45.000000	-44.994761	45.000000	-25.830988	-983.054929	-2250.986749	141.845673	147.567446	-346.777991	43.946922	5.663163	-22.517505	
8.2300	39.711505	-0.627695	1.319974	-135.980412	901.200532	-8.659868	-4.399375	39.442041	45.000000	45.000000	43.116550	2403.746927	-2090.976286	19.325801	-180.000000	6.601714	307.141492	23.031988	9.397173	12.002726	-45.000000	-45.000000	45.000000	-24.919953	-983.264946	-2250.846901	141.763069	147.916970	-346.980966	41.921196	5.977231	-22.580173	
8.2400	39.680755	-0.720716	1.162270	-132.948100	901.482122	-8.596410	-4.443113	39.356901	45.000000	45.000000	43.904139	2403.803058	-2090.999323	19.370098	-180.000000	6.557130	305.893701	23.046141	9.541572	11.791215	-45.000000	-45.000000	45.000000	-24.090503	-983.487241	-2250.746002	141.671716	148.277263	-347.212352	39.641042	6.341621	-22.634854	
8.2500	39.652977	-0.777253	1.059743	-129.850819	901.543531	-8.513763	-4.462837	39.302828	45.000000	45.000000	44.455886	2403.880883	-2091.106343	19.413283	-180.000000	6.501445	304.490341	23.048793	9.688560	11.596613	-45.000000	-45.000000	45.000000	-23.317993	-983.709204	-2250.692512	141.573208	148.648272	-347.471277	37.129441	6.758915	-22.674182	
8.2600	39.628628	-0.803193	0.997547	-126.686379	901.375292	-8.410241	-4.560875	39.256946	45.000000	44.999999	44.789946	2403.957618	-2091.300901	19.467343	-180.000000	6.431524	302.934056	23.036006	9.840366	11.362796	-45.000000	-45.000000	45.000000	-22.552261	-983.964800	-2250.686929	141.511637	149.019308	-347.748856	34.399942	7.247533	-22.708191	
8.2700	39.606786	-0.800242	0.976566	-123.451398	900.968258	-8.285950	-4.714952	39.229172	45.000000	44.999999	44.947751	2404.029782	-2091.568530	19.528964	-180.000000	6.360998	301.214768	23.009475	10.000671	11.105234	-45.000000	-45.000000	45.000000	-21.793752	-984.231060	-2250.732903	141.468976	149.378675	-348.041745	31.491830	7.794569	-22.723673	
8.2800	39.590206	-0.778973	0.977334	-120.143221	900.314558	-8.143112	-4.905282	39.202686	45.000000	44.999998	44.996688	2404.096370	-2091.886184	19.583800	-180.000000	6.284440	299.328280	22.950676	10.181876	10.831886	-45.000000	-45.000000	45.000000	-21.057754	-984.538136	-2250.818470	141.462780	149.722440	-348.332999	28.471097	8.386115	-22.719495	
8.2900	39.575637	-0.740760	0.998199	-116.758704	899.408551	-7.985847	-5.107507	39.185929	45.000000	44.999996	45.000000	2404.147293	-2092.232715	19.628775	-180.000000	6.222814	297.264488	22.860898	10.389707	10.562092	-45.000000	-45.000000	45.000000	-20.347250	-984.860916	-2250.941860	141.469100	150.046229	-348.617128	25.417179	8.996675	-22.682582	
8.3000	39.566789	-0.691364	1.027413	-113.296182	898.247775	-7.819600	-5.282331	39.179903	45.000000	44.999993	45.000000	2404.185021	-2092.590076	19.654738	-180.000000	6.174472	295.017440	22.735620	10.625026	10.314804	-45.000000	-45.000000	45.000000	-19.684520	-985.201573	-2251.099327	141.476161	150.342663	-348.885397	22.413356	9.603922	-22.609514	
8.3100	39.565230	-0.624594	1.073272	-109.754454	896.833521	-7.650193	-5.393516	39.200179	45.000000	44.999988	45.000000	2404.217107	-2092.951451	19.658594	-180.000000	6.151154	292.586952	22.580390	10.883688	10.111139	-45.000000	-45.000000	45.000000	-19.096025	-985.540103	-2251.292351	141.459814	150.613460	-349.137067	19.548244	10.179815	-22.492679	
8.3200	39.574202	-0.541109	1.128645	-106.133879	895.171125	-7.482852	-5.449653	39.234008	45.000000	44.999978	45.000000	2404.246378	-2093.315016	19.638012	-180.000000	6.145917	289.989423	22.384844	11.165968	9.939648	-45.000000	-45.000000	45.000000	-18.593249	-985.902452	-2251.511197	141.437575	150.872448	-349.359716	16.897303	10.711279	-22.343063	
8.3300	39.589560	-0.443552	1.190381	-102.435188	893.269590	-7.321380	-5.513139	39.268740	45.000000	44.999961	45.000000	2404.254803	-2093.693421	19.606888	-180.000000	6.167063	287.240632	22.148134	11.470983	9.773187	-45.000000	-45.000000	45.000000	-18.136693	-986.282625	-2251.757774	141.412826	151.140080	-349.559380	14.496035	11.199009	-22.168498	
8.3400	39.612218	-0.337801	1.251066	-98.660588	891.140880	-7.167662	-5.587333	39.305178	45.000000	44.999930	45.000000	2404.240773	-2094.090102	19.567250	-180.000000	6.208697	284.356775	21.874677	11.788648	9.608963	-45.000000	-45.000000	45.000000	-17.720681	-986.679862	-2252.029864	141.380232	151.421273	-349.738613	12.359491	11.643018	-21.978286	
8.3500	39.642137	-0.223713	1.311780	-94.813470	888.798735	-7.021831	-5.669007	39.342265	45.000000	44.999875	45.000000	2404.206412	-2094.504319	19.518769	-180.000000	6.268372	281.368254	21.566429	12.110771	9.450824	-45.000000	-45.000000	45.000000	-17.349885	-987.095884	-2252.324805	141.339775	151.730107	-349.901728	10.500739	12.038791	-21.779529	
8.3600	39.678588	-0.098629	1.374653	-90.899763	886.257879	-6.882512	-5.737642	39.386888	45.000000	44.999776	45.000000	2404.159169	-2094.930857	19.454181	-180.000000	6.341700	278.326143	21.229314	12.425683	9.303655	-45.000000	-45.000000	45.000000	-17.048866	-987.537080	-2252.629087	141.291975	152.069956	-350.041795	8.939413	12.380177	-21.582010	
8.3700	39.720414	0.033311	1.438712	-86.928130	883.533225	-6.747223	-5.811299	39.431323	45.000000	44.999598	45.000000	2404.092411	-2095.375107	19.381673	-180.000000	6.424397	275.279585	20.868735	12.724204	9.164299	-45.000000	-45.000000	45.000000	-16.796409	-987.994754	-2252.950093	141.234697	152.454306	-350.167161	7.678892	12.671492	-21.390761	
